<?xml version="1.0" encoding="utf-8"?>
<!-- Generator: Adobe Illustrator 19.2.1, SVG Export Plug-In . SVG Version: 6.00 Build 0)  -->
<svg version="1.1" id="Layer_1" xmlns="http://www.w3.org/2000/svg" xmlns:xlink="http://www.w3.org/1999/xlink" x="0px" y="0px"
	 width="385.75px" height="398.6666565px" viewBox="0 0 385.75 398.6666565" style="enable-background:new 0 0 385.75 398.6666565;"
	 xml:space="preserve">
<path style="fill:#B9E1EF;" d="M328.6269836,398.6666565H57.293663C25.7821484,398.6666565,0,372.8845215,0,341.3730164V57.293663
	C0,25.7821484,25.7821484,0,57.293663,0h271.333313c31.5115356,0,57.2936707,25.7821484,57.2936707,57.293663v284.0793457
	C385.9206543,372.8845215,360.1385193,398.6666565,328.6269836,398.6666565z"/>
<g>
	<g>
		<g>
			<path style="fill:#F8A47C;" d="M334.6212158,199.3272552c0,68.2288971-48.2180176,125.1773834-112.4398804,138.6434479
				c-9.4347382,1.979248-19.2094879,3.0234985-29.227066,3.0234985c-78.2343521,0-141.6548157-63.4204407-141.6548157-141.6669464
				c0-78.2343369,63.4204597-141.6547852,141.6548157-141.6547852c5.9012604,0,11.7296753,0.3642769,17.436676,1.0685425
				C280.4169312,67.3257828,334.6212158,126.9941864,334.6212158,199.3272552z"/>
		</g>
		<path style="fill:#73CFEE;" d="M319.2279968,223.7337494c0.036438,1.7120972-0.024292,3.3149109-0.1942749,4.8570251
			c-1.2992554,11.6689758-8.5847778,19.537323-21.1037292,32.6512604c0,0,0,0.012146-0.012146,0.012146
			c-2.124939,2.2220764-4.3955994,4.6020203-6.8240967,7.176239c-7.0669556,7.5040894-15.3967285,16.6716919-24.8800659,28.6078186
			c-6.3505249,7.9897766-17.8980865,16.2102661-31.3155823,22.4029541
			c-3.9827576,1.8335266-8.135498,3.4970703-12.3732452,4.9177246c-0.012146,0.012146-0.012146,0.012146-0.0242767,0h-0.012146
			c-19.5009155,6.5569763-40.6046295,8.0383606-54.8356781-1.3478088c-2.1128082-1.3963928-4.079895-3.0356445-5.8648529-4.9298706
			c-0.0849915-0.0849915-0.1699982-0.1821289-0.2549896-0.2671204
			c-20.3994598-21.3951721-65.6546783-28.2192688-81.524971-51.7393494
			c-1.1899719-1.7242432-2.1977997-3.5334778-3.0113525-5.4519958c-1.8699493-4.2984619-2.8292084-9.1190491-2.6349258-14.5831909
			c0.2307053-6.5083923,0.2792816-12.385376,0.2428513-17.7280884c-0.012146-1.7120972-0.0364304-3.3756256-0.0607147-4.9905853
			c-0.3642731-21.7229919-1.9306641-33.926239,2.137085-44.3688202c0.607132-1.5785217,1.3478241-3.10849,2.2463684-4.626297
			c1.1656876-2.0035248,2.5985031-3.9827576,4.3470306-5.9984131c10.867569-12.5310974,16.4288483-26.4950104,22.8886719-39.9125061
			l2.3435135-4.7477341c6.1319809-12.0332489,13.5874939-23.4108047,26.9928436-32.67556h0.012146
			c2.2706604-1.5785294,4.687027-3.0842056,7.3219452-4.5170212c5.4277191-2.9870605,11.6811218-5.6705627,18.9544983-8.0019302
			c22.111557-7.1033859,38.8196869,0.8378372,55.6006622,10.6368561c0.012146,0,0.012146,0,0.012146,0
			c2.7927856,1.6271057,5.597702,3.3149109,8.4269104,4.9905853c13.7453613,8.1476364,28.1221161,16.0767136,46.0566254,16.7445526
			c12.8103943,0.4735565,21.0308838,5.6584244,26.5193176,13.7089233c0.959259,1.4085312,1.8334961,2.9020615,2.6349182,4.4805908
			c5.6705627,11.1104126,7.6619263,26.1064453,9.4711609,41.5396118c0.1821594,1.6028137,0.3642883,3.2177734,0.5464172,4.8205872
			c1.2871094,10.9647064,2.6592102,21.9779816,5.3548584,31.7891541
			C318.1958923,213.6675873,319.1187134,219.0467377,319.2279968,223.7337494z"/>
		<g>
			<g>
				<path style="fill:#61C0D1;" d="M231.920639,201.9880524c0,24.6767578-17.2693787,45.1813812-39.9777222,49.2229004
					c-2.6736603,0.4873047-5.4389954,0.7369232-8.2503662,0.7369232c-26.632843,0-48.2281952-22.3707733-48.2281952-49.9598236
					s21.5953522-49.9598694,48.2281952-49.9598694c2.8113708,0,5.5767059,0.2496643,8.2503662,0.7369232
					C214.6512604,156.8066559,231.920639,177.3112488,231.920639,201.9880524z"/>
			</g>
			<g>
				<path style="fill:#B9E1EF;" d="M239.5341034,202.3644714c0,23.005249-16.6777649,42.1208801-38.6081543,45.8886871
					c-2.5819702,0.4542694-5.252594,0.687027-7.9675598,0.687027c-25.7203064,0-46.5758362-20.8555298-46.5758362-46.5757141
					c0-25.7203369,20.8555298-46.5758667,46.5758362-46.5758667c2.7149658,0,5.3855896,0.2328033,7.9675598,0.687027
					C222.8563385,160.2434845,239.5341034,179.3591156,239.5341034,202.3644714z"/>
			</g>
		</g>
		<path style="opacity:0.28;fill:#F8A47C;" d="M334.6212158,199.3272552
			c0,68.2288971-48.2180176,125.1773834-112.4398804,138.6434479c8.5240631-8.0505066,16.1617126-16.0038452,22.9736786-23.8600769
			c24.9650421-28.7656555,38.8803864-56.0863647,44.9273834-81.5371094
			c0.3157043-1.3478241,0.6192627-2.6956329,0.8985291-4.0313263c2.9506531-14.291748,3.4484863-27.9885254,2.0642395-40.9931793
			c-0.1699829-1.6392517-0.3764038-3.2542114-0.6071167-4.8691559c-1.7242432-11.875412-4.9906006-23.1679535-9.349762-33.7926788
			c-0.5949707-1.4571075-1.2021179-2.8899231-1.8456726-4.3105927
			c-5.6584167-12.7496643-12.8589172-24.5036392-20.7637329-35.1647797
			c-16.1495514-21.7837067-35.2133331-39.0018234-50.0879364-50.6707954
			C280.4169312,67.3257828,334.6212158,126.9941864,334.6212158,199.3272552z"/>
		<path style="opacity:0.22;fill:#FFFFFF;" d="M112.361824,178.0787659
			c11.3709946,16.4954224,37.1017532-31.6215668,61.2824326-34.1937256
			c24.1806335-2.5721588,41.3686371-21.0170059,26.9289551-40.0131683
			C186.1336823,84.8758545,85.3819885,138.9402466,112.361824,178.0787659z"/>
		<path style="opacity:0.22;fill:#FFFFFF;" d="M183.6925507,281.3674316
			c-3.042923,21.2493286,39.0790253,8.131134,62.9573212-8.1522522
			c23.8782959-16.2832642,28.0947876-37.0473633,18.3539429-45.4453888
			c-9.7408752-8.3978882-23.9928284,25.1264191-38.7240143,28.5965424
			C211.5485992,259.8365479,185.5314026,268.5260925,183.6925507,281.3674316z"/>
	</g>
	<circle style="fill:#E7678E;" cx="93.8488541" cy="212.9388733" r="7.6803093"/>
	<circle style="fill:#F8E37E;" cx="123.4206772" cy="236.7657166" r="7.6803007"/>
	<circle style="fill:#E7678E;" cx="146.3825226" cy="278.6740417" r="7.6803355"/>
	<circle style="fill:#F8E37E;" cx="176.4329376" cy="299.2736206" r="7.6803355"/>
	<circle style="fill:#AAD26D;" cx="203.0878296" cy="270.9737549" r="7.6803269"/>
	<circle style="fill:#FFFFFF;" cx="112.472435" cy="268.6799011" r="7.6803355"/>
	<circle style="fill:#FFFFFF;" cx="259.3016357" cy="125.4378891" r="7.6803355"/>
	<circle style="fill:#FFFFFF;" cx="300.1604614" cy="214.2565918" r="7.6803446"/>
	<circle style="fill:#FFFFFF;" cx="125.5669632" cy="189.432251" r="7.6803093"/>
	<circle style="fill:#FFFFFF;" cx="248.0247498" cy="260.4916382" r="7.6803355"/>
	<circle style="fill:#8F6C56;" cx="219.0291748" cy="298.5880127" r="7.6803355"/>
	<circle style="fill:#E7678E;" cx="280.1863708" cy="245.9678345" r="7.6803355"/>
	<circle style="fill:#F8E37E;" cx="259.3016357" cy="211.4594879" r="7.6803446"/>
	<circle style="fill:#AAD26D;" cx="292.4801331" cy="177.2350769" r="7.6803446"/>
	<circle style="fill:#E7678E;" cx="248.0247498" cy="157.4450073" r="7.6803355"/>
	<circle style="fill:#8F6C56;" cx="284.7998047" cy="133.1182251" r="7.6803355"/>
	<circle style="fill:#E7678E;" cx="226.7095032" cy="113.3220825" r="7.6803355"/>
	<circle style="fill:#F8E37E;" cx="184.113266" cy="137.5979767" r="7.6803355"/>
	<circle style="fill:#FFFFFF;" cx="183.6925049" cy="94.9787674" r="7.6803355"/>
	<circle style="fill:#E7678E;" cx="142.752533" cy="108.3776016" r="7.6802745"/>
	<circle style="fill:#AAD26D;" cx="142.752533" cy="144.3478241" r="7.6803007"/>
	<circle style="fill:#8F6C56;" cx="107.7946396" cy="167.3400574" r="7.6803093"/>
</g>
</svg>
